<svg width="68" height="68" viewBox="0 0 68 68" fill="none" xmlns="http://www.w3.org/2000/svg">
<path d="M56 33.9597V34.5019C56 38.8147 56 40.9711 55.4247 42.9155C54.796 45.0405 53.6717 46.986 52.1444 48.5918C50.747 50.061 48.8787 51.1377 45.1419 53.2911L37.91 57.4587C35.4993 58.8479 32.5227 58.8108 30.1474 57.3619L28.3467 56.2635C24.3655 53.8351 24.3132 48.0725 28.2497 45.5722L36.2801 40.4717C39.2635 38.5768 37.9212 33.9597 34.3868 33.9597V33.9597C30.8924 33.9597 29.5209 29.4271 32.429 27.4898L39.8007 22.5789C43.6733 19.999 43.4386 14.2339 39.3691 11.9773L37.6596 11.0293C35.3888 9.77008 32.6241 9.79287 30.3744 11.0894L22.6413 15.5457C19.1159 17.5773 17.3532 18.5931 16.0132 19.957C14.3525 21.6473 13.1481 23.7316 12.5127 26.0144C12 27.8564 12 29.8909 12 33.9597V33.9597M56 16.9237V19.697" stroke="#3E3E3E" stroke-width="6" stroke-linecap="round" stroke-linejoin="round"/>
</svg>
