<svg width="16" height="17" viewBox="0 0 16 17" fill="none" xmlns="http://www.w3.org/2000/svg">
<path d="M15 8.38281V10.4018C15 11.0751 15 11.4117 14.9021 11.7131C14.8154 11.9797 14.6736 12.2252 14.486 12.4335C14.2739 12.6689 13.9823 12.8371 13.3991 13.1736L9.65715 15.3324C9.53262 15.4043 9.47036 15.4402 9.41015 15.4697C8.83863 15.7502 8.16771 15.7418 7.60336 15.4472C7.5439 15.4161 7.48256 15.3787 7.35986 15.3038L6.82944 14.9799C5.65267 14.2612 5.63721 12.5577 6.80074 11.8178L9.17466 10.3083C10.0564 9.74765 9.65927 8.38281 8.61431 8.38281V8.38281C7.58118 8.38281 7.17536 7.04296 8.03487 6.46971L10.2141 5.01627C11.3588 4.25284 11.2894 2.54852 10.0864 1.8807L9.58306 1.60125C9.49248 1.55097 9.4472 1.52583 9.40361 1.50433C8.8355 1.22414 8.16824 1.22964 7.60483 1.51917C7.56161 1.54138 7.51674 1.56727 7.427 1.61904L3.60089 3.82641C3.01769 4.16287 2.72609 4.3311 2.51401 4.56653C2.32636 4.77484 2.18461 5.02028 2.09795 5.28691C2 5.58826 2 5.92491 2 6.5982V8.38281M15 3.34375V4.16406" stroke="url(#paint0_linear_5_58)" stroke-width="1.5" stroke-linecap="round" stroke-linejoin="round"/>
<defs>
<linearGradient id="paint0_linear_5_58" x1="8.5" y1="-0.666667" x2="8.5" y2="17.0417" gradientUnits="userSpaceOnUse">
<stop stop-color="#72FFD5"/>
<stop offset="1" stop-color="#07FFFF"/>
</linearGradient>
</defs>
</svg>
