<svg width="16" height="16" viewBox="0 0 16 16" fill="none" xmlns="http://www.w3.org/2000/svg">
<path d="M10.3333 8.00002C10.3333 9.28869 9.28866 10.3334 7.99999 10.3334C6.71132 10.3334 5.66666 9.28869 5.66666 8.00002C5.66666 6.71135 6.71132 5.66669 7.99999 5.66669C9.28866 5.66669 10.3333 6.71135 10.3333 8.00002Z" stroke="#EDEDED"/>
<path d="M14.0073 9.39769C14.3553 9.30389 14.5293 9.25696 14.5979 9.16722C14.6667 9.07756 14.6667 8.93322 14.6667 8.64462V7.35549C14.6667 7.06689 14.6667 6.92256 14.5979 6.83289C14.5292 6.74316 14.3553 6.69622 14.0073 6.60241C12.7071 6.25175 11.8933 4.89236 12.2289 3.6006C12.3211 3.24535 12.3673 3.06773 12.3232 2.96355C12.2791 2.85937 12.1527 2.78758 11.8998 2.644L10.75 1.99118C10.5019 1.85028 10.3778 1.77984 10.2665 1.79484C10.1551 1.80984 10.0295 1.93518 9.77814 2.18584C8.80534 3.15634 7.19574 3.1563 6.2229 2.18578C5.97163 1.93511 5.846 1.80978 5.73463 1.79477C5.62327 1.77977 5.49919 1.85022 5.25103 1.99111L4.10124 2.64394C3.84836 2.78751 3.72192 2.8593 3.67786 2.96346C3.6338 3.06762 3.67992 3.24527 3.77218 3.60056C4.10759 4.89236 3.29316 6.25178 1.99269 6.60242C1.64476 6.69622 1.47079 6.74316 1.40206 6.83282C1.33334 6.92256 1.33334 7.06689 1.33334 7.35549V8.64462C1.33334 8.93322 1.33334 9.07756 1.40206 9.16722C1.47078 9.25696 1.64475 9.30389 1.99269 9.39769C3.29294 9.74836 4.10673 11.1078 3.77116 12.3995C3.67887 12.7548 3.63272 12.9324 3.67678 13.0366C3.72085 13.1408 3.84729 13.2126 4.10018 13.3561L5.24998 14.009C5.49815 14.1498 5.62224 14.2203 5.73361 14.2053C5.84498 14.1903 5.9706 14.0649 6.22182 13.8142C7.19514 12.843 8.80588 12.8429 9.77928 13.8142C10.0305 14.0649 10.1561 14.1902 10.2675 14.2052C10.3788 14.2202 10.5029 14.1498 10.7511 14.0089L11.9009 13.356C12.1538 13.2125 12.2803 13.1407 12.3243 13.0365C12.3683 12.9323 12.3222 12.7547 12.2299 12.3994C11.8941 11.1078 12.7073 9.74842 14.0073 9.39769Z" stroke="#EDEDED" stroke-linecap="round"/>
</svg>
