<svg width="16" height="16" viewBox="0 0 16 16" fill="none" xmlns="http://www.w3.org/2000/svg">
<path d="M1.33334 8C1.33334 6.34533 1.67868 6 3.33334 6H4.66668C6.32134 6 6.66668 6.34533 6.66668 8C6.66668 9.65467 6.32134 10 4.66668 10H3.33334C1.67868 10 1.33334 9.65467 1.33334 8Z" stroke="#EDEDED"/>
<path d="M9.33334 4.66669C9.33334 3.01202 9.67868 2.66669 11.3333 2.66669H12.6667C14.3213 2.66669 14.6667 3.01202 14.6667 4.66669C14.6667 6.32135 14.3213 6.66669 12.6667 6.66669H11.3333C9.67868 6.66669 9.33334 6.32135 9.33334 4.66669Z" stroke="#EDEDED"/>
<path d="M9.33334 11.3333C9.33334 9.67865 9.67868 9.33331 11.3333 9.33331H12.6667C14.3213 9.33331 14.6667 9.67865 14.6667 11.3333C14.6667 12.988 14.3213 13.3333 12.6667 13.3333H11.3333C9.67868 13.3333 9.33334 12.988 9.33334 11.3333Z" stroke="#EDEDED"/>
<path d="M9.33334 4.66669L7.33334 8.00002L9.33334 11.3334" stroke="#EDEDED" stroke-linecap="round" stroke-linejoin="round"/>
</svg>
