<svg width="16" height="16" viewBox="0 0 16 16" fill="none" xmlns="http://www.w3.org/2000/svg">
<path d="M14.3627 7.36331C14.5653 7.64751 14.6667 7.78965 14.6667 7.99998C14.6667 8.21031 14.5653 8.35245 14.3627 8.63665C13.4519 9.91371 11.1261 12.6666 8.00001 12.6666C4.87386 12.6666 2.54808 9.91371 1.63737 8.63665C1.43468 8.35245 1.33334 8.21031 1.33334 7.99998C1.33334 7.78965 1.43468 7.64751 1.63737 7.36331C2.54808 6.08627 4.87386 3.33331 8.00001 3.33331C11.1261 3.33331 13.4519 6.08627 14.3627 7.36331Z" stroke="#EDEDED"/>
<path d="M10 8C10 6.8954 9.1046 6 8 6C6.8954 6 6 6.8954 6 8C6 9.1046 6.8954 10 8 10C9.1046 10 10 9.1046 10 8Z" stroke="#EDEDED"/>
</svg>
